<?xml version="1.0" standalone="no"?>
<!DOCTYPE svg PUBLIC "-//W3C//DTD SVG 20010904//EN"
 "http://www.w3.org/TR/2001/REC-SVG-20010904/DTD/svg10.dtd">
<svg version="1.0" xmlns="http://www.w3.org/2000/svg"
 width="225.000000pt" height="100.000000pt" viewBox="0 0 225.000000 100.000000"
 preserveAspectRatio="xMidYMid meet">
<metadata>
Created by potrace 1.14, written by Peter Selinger 2001-2017
</metadata>
<g transform="translate(0.000000,100.000000) scale(0.100000,-0.100000)"
fill="#000000" stroke="none">
<path d="M308 853 c-26 -4 -26 -6 -21 -58 5 -50 4 -56 -25 -84 -38 -38 -95
-42 -136 -10 -15 12 -29 20 -30 18 -2 -2 -14 -24 -26 -49 -31 -60 -38 -159
-16 -231 15 -51 77 -149 94 -149 4 1 16 19 27 42 27 57 73 81 144 75 48 -3 58
-8 93 -45 36 -39 44 -63 39 -119 -2 -21 1 -22 26 -12 96 36 177 130 198 229
l7 35 -23 -22 c-48 -43 -142 -57 -197 -29 -31 16 -74 61 -91 93 -16 31 -14
119 3 152 23 43 82 89 123 96 21 4 43 8 48 10 6 1 -15 14 -45 28 -55 26 -140
39 -192 30z"/>
<path d="M880 723 c-8 -3 -25 -15 -37 -26 l-23 -20 0 21 c0 13 -6 22 -15 22
-13 0 -15 -24 -15 -155 0 -131 2 -155 15 -155 12 0 15 17 15 95 0 144 24 185
108 185 28 0 45 -7 63 -26 22 -23 24 -35 27 -140 3 -90 7 -114 18 -114 21 0
20 219 -2 261 -23 45 -101 71 -154 52z"/>
<path d="M1194 716 c-100 -45 -121 -197 -38 -277 30 -29 42 -33 97 -37 49 -2
69 1 95 17 17 12 32 28 32 36 0 19 2 19 -45 -5 -71 -36 -143 -20 -179 40 -33
58 -29 60 113 60 82 0 132 4 136 11 13 20 -17 97 -50 129 -40 38 -109 50 -161
26z m111 -30 c30 -13 65 -58 65 -86 0 -6 -41 -10 -115 -10 -129 0 -135 4 -88
60 42 50 80 60 138 36z"/>
<path d="M1540 711 c-92 -48 -115 -171 -48 -256 66 -84 227 -67 273 30 18 40
22 107 7 145 -33 84 -150 125 -232 81z m139 -29 c39 -21 71 -73 71 -115 0
-131 -158 -184 -239 -81 -30 38 -29 121 1 159 41 53 109 68 167 37z"/>
<path d="M1872 568 l-72 -153 120 -3 120 -3 0 -59 c0 -53 2 -60 20 -60 19 0
20 7 20 125 0 118 -1 125 -20 125 -17 0 -20 -7 -20 -50 l0 -50 -94 0 -95 0 65
136 c35 75 64 138 64 140 0 2 -8 4 -18 4 -14 0 -36 -38 -90 -152z"/>
</g>
</svg>
